<svg id="Capa_1" enable-background="new 0 0 512 512" height="512" viewBox="0 0 512 512" width="512" xmlns="http://www.w3.org/2000/svg"><g><path d="m296.627 381.375h-81.254s-2.754 41.122-8.263 63.497h97.78c-5.509-22.375-8.263-63.497-8.263-63.497z" fill="#d9e7ec"/><path d="m304.891 444.87h-21.809c-5.509-22.376-8.269-63.493-8.269-63.493h21.81c0 .001 2.759 41.118 8.268 63.493z" fill="#c5d3dd"/><path d="m409.556 486.875h-307.112v-10.36c0-18.044 14.628-32.672 32.672-32.672h241.768c18.044 0 32.672 14.628 32.672 32.672z" fill="#b6c4cf"/><path d="m409.552 476.514v10.359h-21.933v-10.359c0-18.041-14.622-32.673-32.673-32.673h21.933c18.051 0 32.673 14.632 32.673 32.673z" fill="#9facba"/><path d="m493.201 374.81h-474.402c-10.382 0-18.799-8.417-18.799-18.799v-281.17c0-10.383 8.417-18.799 18.799-18.799h474.402c10.383 0 18.799 8.417 18.799 18.799v281.17c0 10.382-8.417 18.799-18.799 18.799z" fill="#f5f8f9"/><path d="m511.999 67.848v296.786c0 10.38-8.413 18.803-18.803 18.803h-20.594c10.39 0 18.803-8.423 18.803-18.803v-296.786c0-10.379-8.413-18.792-18.803-18.792h20.594c10.39 0 18.803 8.413 18.803 18.792z" fill="#d9e7ec"/><path d="m512 328.584h-512v36.051c0 10.383 8.417 18.799 18.799 18.799h474.402c10.383 0 18.799-8.417 18.799-18.799z" fill="#b6c4cf"/><path d="m511.999 328.584v36.05c0 10.38-8.413 18.803-18.803 18.803h-20.594c10.39 0 18.803-8.423 18.803-18.803v-36.05z" fill="#9facba"/><path d="m332.5 295.365h-153.128c-4.758 0-8.615-3.857-8.615-8.615v-153.127c0-4.758 3.857-8.615 8.615-8.615h153.128c4.758 0 8.615 3.857 8.615 8.615v153.127c-.001 4.758-3.858 8.615-8.615 8.615z" fill="#f5f8f9"/><path d="m332.5 295.365h-153.128c-4.758 0-8.615-3.857-8.615-8.615v-153.127c0-4.758 3.857-8.615 8.615-8.615h153.128c4.758 0 8.615 3.857 8.615 8.615v153.127c-.001 4.758-3.858 8.615-8.615 8.615z" fill="#d9e7ec"/><path d="m341.117 133.627v153.119c0 4.757-3.861 8.619-8.619 8.619h-20.594c4.757 0 8.619-3.861 8.619-8.619v-153.119c0-4.757-3.861-8.619-8.619-8.619h20.594c4.757 0 8.619 3.862 8.619 8.619z" fill="#c5d3dd"/><path d="m511.999 67.848v23.941h-511.998v-23.941c0-10.379 8.413-18.792 18.803-18.792h474.393c10.389 0 18.802 8.413 18.802 18.792z" fill="#596c76"/><path d="m511.999 67.848v23.941h-20.594v-23.941c0-10.379-8.413-18.792-18.803-18.792h20.594c10.39 0 18.803 8.413 18.803 18.792z" fill="#465a61"/><path d="m380.822 91.789h131.177v136.016h-131.177z" fill="#fedba6"/><path d="m491.405 91.789h20.594v136.016h-20.594z" fill="#fece85"/><path d="m380.822 227.805h131.177v100.779h-131.177z" fill="#c1e9af"/><path d="m491.405 227.805h20.594v100.779h-20.594z" fill="#ade194"/><g><g><g><path d="m417.172 271.78h-11.415c-4.266 0-7.723-3.457-7.723-7.723s3.457-7.723 7.723-7.723h11.415c4.266 0 7.723 3.457 7.723 7.723 0 4.265-3.457 7.723-7.723 7.723z" fill="#80d261"/></g><g><path d="m487.064 271.78h-44.209c-4.266 0-7.723-3.457-7.723-7.723s3.457-7.723 7.723-7.723h44.209c4.266 0 7.723 3.457 7.723 7.723 0 4.265-3.457 7.723-7.723 7.723z" fill="#80d261"/></g></g><g><g><path d="m417.172 300.056h-11.415c-4.266 0-7.723-3.457-7.723-7.723s3.457-7.723 7.723-7.723h11.415c4.266 0 7.723 3.457 7.723 7.723s-3.457 7.723-7.723 7.723z" fill="#80d261"/></g><g><path d="m487.064 300.056h-44.209c-4.266 0-7.723-3.457-7.723-7.723s3.457-7.723 7.723-7.723h44.209c4.266 0 7.723 3.457 7.723 7.723s-3.457 7.723-7.723 7.723z" fill="#80d261"/></g></g></g><g><g><path d="m487.064 127.381h-81.308c-4.266 0-7.723-3.457-7.723-7.723s3.457-7.723 7.723-7.723h81.308c4.266 0 7.723 3.457 7.723 7.723s-3.457 7.723-7.723 7.723z" fill="#fec165"/></g><g><path d="m487.064 154.141h-81.308c-4.266 0-7.723-3.457-7.723-7.723s3.457-7.723 7.723-7.723h81.308c4.266 0 7.723 3.457 7.723 7.723s-3.457 7.723-7.723 7.723z" fill="#fec165"/></g><g><path d="m487.064 180.9h-28.236c-4.266 0-7.723-3.457-7.723-7.723s3.457-7.723 7.723-7.723h28.236c4.266 0 7.723 3.457 7.723 7.723s-3.457 7.723-7.723 7.723z" fill="#fec165"/></g><g><path d="m423.21 180.9h-17.454c-4.266 0-7.723-3.457-7.723-7.723s3.457-7.723 7.723-7.723h17.454c4.266 0 7.723 3.457 7.723 7.723s-3.457 7.723-7.723 7.723z" fill="#fec165"/></g><g><path d="m487.064 207.658h-81.308c-4.266 0-7.723-3.457-7.723-7.723s3.457-7.723 7.723-7.723h81.308c4.266 0 7.723 3.457 7.723 7.723s-3.457 7.723-7.723 7.723z" fill="#fec165"/></g></g><g><path d="m126.919 295.365h-83.68c-2.282 0-4.132-1.85-4.132-4.132v-261.974c0-2.282 1.85-4.132 4.132-4.132h83.68c2.282 0 4.132 1.85 4.132 4.132v261.974c-.001 2.282-1.851 4.132-4.132 4.132z" fill="#fedba6"/><path d="m131.054 29.254v261.982c0 2.276-1.853 4.129-4.139 4.129h-20.588c2.286 0 4.129-1.853 4.129-4.129v-261.982c0-2.276-1.843-4.129-4.129-4.129h20.588c2.285 0 4.139 1.854 4.139 4.129z" fill="#fece85"/><path d="m92.799 77.889v29.594h38.254v15.446h-38.254v29.594h38.254v15.446h-38.254v29.594h38.254v15.446h-38.254v29.594h38.254v15.446h-38.254v37.317h-15.446v-37.317h-38.244v-15.446h38.244v-29.594h-38.244v-15.446h38.244v-29.594h-38.244v-15.446h38.244v-29.594h-38.244v-15.446h38.244v-29.594h-38.244v-15.446h38.244v-37.317h15.446v37.317h38.254v15.446z" fill="#fec165"/></g></g></svg>