<svg width="3840.0000000000005" height="2160" xmlns="http://www.w3.org/2000/svg">
 <g id="Layer_1">
  <title>Layer 1</title>
  <path stroke-width="0" stroke="#000" id="svg_4" d="m-7.78724,-19.95727l3860.75032,0l0,1553.51938c-1930.37516,0 -1930.37516,591.9194 -3860.75032,255.60159l0,-1809.12097z" fill="#529D94"/>
  <path stroke="#000" stroke-width="0" id="svg_12" d="m1064.28952,-7.10635c1445.8655,-0.13534 1666.6545,7.68025 2770.8433,2.08267l9.33505,1235.72069c-1762.52872,730.65511 -2713.04423,49.29739 -3850.56301,267.07139l1.58138,-1498.62692l468.77508,-2.08159l600.0282,-4.16625z" fill="#7AD6CA"/>
  <path id="svg_13" d="m1615.00952,2399.40141c0.49667,-0.62712 0.99334,0.62712 1.49,0l0,1.12882c-0.49667,0.62712 -0.99334,-0.62712 -1.49,0l0,-1.12882z" stroke="#000" fill="#fff"/>
  <path stroke-width="0" stroke="#000" id="svg_21" d="m3809.25543,756.66729c1.01427,-9.6774 1.60148,-19.45405 1.60148,-29.32995c0,-171.31472 -149.36427,-310.17294 -333.6407,-310.17294c-143.01175,0 -264.67049,83.82113 -312.12755,201.43871c-31.4423,-32.05947 -76.28361,-52.5557 -126.62332,-52.5557c-94.91411,0 -171.83831,71.51347 -171.83831,159.75147c0,10.42181 1.2278,20.59548 3.30972,30.42176c-126.62332,19.40442 -223.51258,120.893 -223.51258,244.06888c0,137.07162 119.52344,248.13835 266.91256,248.13835l847.44737,0c147.4425,0 266.91256,-111.06672 266.91256,-248.13835c0.05338,-121.63742 -94.22013,-222.38159 -218.44124,-243.62223l0.00001,0z" fill="#5B9BA2"/>
  <g stroke="null" id="svg_55">
   <g stroke="null" id="svg_7">
    <path stroke="null" id="svg_8" fill="#d9e7ec" d="m2307.46109,893.43209l134.57662,0s4.5613,68.55146 13.68556,105.85118l-161.94775,0c9.12426,-37.29972 13.68556,-105.85118 13.68556,-105.85118l0.00001,0z"/>
    <path stroke="null" id="svg_9" fill="#c5d3dd" d="m2293.77387,999.27993l36.12107,0c9.12426,-37.30138 13.6955,-105.84451 13.6955,-105.84451l-36.12273,0c0,0.00167 -4.56958,68.54479 -13.69384,105.84451z"/>
    <path stroke="null" id="svg_10" fill="#b6c4cf" d="m2120.42287,1069.30337l508.65307,0l0,-17.27039c0,-30.07982 -24.22757,-54.46509 -54.11287,-54.46509l-400.42732,0c-29.88531,0 -54.11287,24.38526 -54.11287,54.46509l0,17.27039l-0.00001,0z"/>
    <path stroke="null" id="svg_11" fill="#9facba" d="m2120.4295,1052.03131l0,17.26873l36.32645,0l0,-17.26873c0,-30.07482 24.21763,-54.46675 54.11453,-54.46675l-36.32645,0c-29.8969,0 -54.11453,24.39193 -54.11453,54.46675z"/>
    <path stroke="null" id="svg_14" fill="#f5f8f9" d="m1981.88616,882.48806l785.72649,0c17.19515,0 31.13577,-14.03136 31.13577,-31.33843l0,-468.71782c0,-17.30874 -13.94062,-31.33843 -31.13577,-31.33843l-785.72649,0c-17.1968,0 -31.13577,14.03136 -31.13577,31.33843l0,468.71782c0,17.30707 13.94062,31.33843 31.13577,31.33843z"/>
    <path stroke="null" id="svg_15" fill="#d9e7ec" d="m1950.75205,370.7743l0,494.7501c0,17.30373 13.934,31.3451 31.1424,31.3451l34.10873,0c-17.2084,0 -31.1424,-14.04136 -31.1424,-31.3451l0,-494.7501c0,-17.30207 13.934,-31.32676 31.1424,-31.32676l-34.10873,0c-17.2084,0 -31.1424,14.02469 -31.1424,31.32676z"/>
    <path stroke="null" id="svg_16" fill="#b6c4cf" d="m1950.75039,805.4281l847.99803,0l0,60.09797c0,17.30874 -13.94062,31.33843 -31.13577,31.33843l-785.72649,0c-17.1968,0 -31.13577,-14.03136 -31.13577,-31.33843l0,-60.09797z"/>
    <path stroke="null" id="svg_17" fill="#9facba" d="m1950.75205,805.4281l0,60.0963c0,17.30373 13.934,31.3451 31.1424,31.3451l34.10873,0c-17.2084,0 -31.1424,-14.04136 -31.1424,-31.3451l0,-60.0963l-34.10873,0z"/>
    <path stroke="null" id="svg_18" fill="#f5f8f9" d="m2248.04657,750.05115l253.61766,0c7.88042,0 14.26856,-6.42972 14.26856,-14.36143l0,-255.26675c0,-7.93171 -6.38814,-14.36143 -14.26856,-14.36143l-253.61766,0c-7.88042,0 -14.26856,6.42972 -14.26856,14.36143l0,255.26675c0.00166,7.93171 6.3898,14.36143 14.26856,14.36143z"/>
    <path stroke="null" id="svg_19" fill="#d9e7ec" d="m2248.04657,750.05115l253.61766,0c7.88042,0 14.26856,-6.42972 14.26856,-14.36143l0,-255.26675c0,-7.93171 -6.38814,-14.36143 -14.26856,-14.36143l-253.61766,0c-7.88042,0 -14.26856,6.42972 -14.26856,14.36143l0,255.26675c0.00166,7.93171 6.3898,14.36143 14.26856,14.36143z"/>
    <path stroke="null" id="svg_20" fill="#c5d3dd" d="m2233.7747,480.42963l0,255.25342c0,7.93004 6.39477,14.3681 14.27519,14.3681l34.10873,0c-7.87876,0 -14.27519,-6.43639 -14.27519,-14.3681l0,-255.25342c0,-7.93004 6.39477,-14.3681 14.27519,-14.3681l-34.10873,0c-7.87876,0 -14.27519,6.43806 -14.27519,14.3681z"/>
    <path stroke="null" id="svg_23" fill="#596c76" d="m1950.75205,370.7743l0,39.91028l847.99472,0l0,-39.91028c0,-17.30207 -13.934,-31.32676 -31.1424,-31.32676l-785.71158,0c-17.20674,0 -31.14074,14.02469 -31.14074,31.32676z"/>
    <path stroke="null" id="svg_24" fill="#465a61" d="m1950.75205,370.7743l0,39.91028l34.10873,0l0,-39.91028c0,-17.30207 13.934,-31.32676 31.1424,-31.32676l-34.10873,0c-17.2084,0 -31.1424,14.02469 -31.1424,31.32676z"/>
    <path stroke="null" id="svg_25" fill="#fedba6" d="m2168.01345,410.68458l-217.2614,0l0,226.74226l217.2614,0l0,-226.74226z"/>
    <path stroke="null" id="svg_26" fill="#fece85" d="m1984.86078,410.68458l-34.10873,0l0,226.74226l34.10873,0l0,-226.74226z"/>
    <path stroke="null" id="svg_27" fill="#c1e9af" d="m2168.01345,637.42684l-217.2614,0l0,168.00125l217.2614,0l0,-168.00125z"/>
    <path stroke="null" id="svg_28" fill="#ade194" d="m1984.86078,637.42684l-34.10873,0l0,168.00125l34.10873,0l0,-168.00125z"/>
    <g stroke="null" id="svg_29">
     <g stroke="null" id="svg_30">
      <g stroke="null" id="svg_31">
       <path stroke="null" id="svg_32" fill="#80d261" d="m2107.8089,710.73433l18.90605,0c7.06555,0 12.79119,-5.76291 12.79119,-12.87444s-5.72564,-12.87444 -12.79119,-12.87444l-18.90605,0c-7.06555,0 -12.79119,5.76291 -12.79119,12.87444c0,7.10987 5.72564,12.87444 12.79119,12.87444z"/>
      </g>
      <g stroke="null" id="svg_33">
       <path stroke="null" id="svg_34" fill="#80d261" d="m1992.05054,710.73433l73.22099,0c7.06555,0 12.79119,-5.76291 12.79119,-12.87444s-5.72564,-12.87444 -12.79119,-12.87444l-73.22099,0c-7.06555,0 -12.79119,5.76291 -12.79119,12.87444c0,7.10987 5.72564,12.87444 12.79119,12.87444z"/>
      </g>
     </g>
     <g stroke="null" id="svg_35">
      <g stroke="null" id="svg_36">
       <path stroke="null" id="svg_37" fill="#80d261" d="m2107.8089,757.87117l18.90605,0c7.06555,0 12.79119,-5.76291 12.79119,-12.87444s-5.72564,-12.87444 -12.79119,-12.87444l-18.90605,0c-7.06555,0 -12.79119,5.76291 -12.79119,12.87444s5.72564,12.87444 12.79119,12.87444z"/>
      </g>
      <g stroke="null" id="svg_38">
       <path stroke="null" id="svg_39" fill="#80d261" d="m1992.05054,757.87117l73.22099,0c7.06555,0 12.79119,-5.76291 12.79119,-12.87444s-5.72564,-12.87444 -12.79119,-12.87444l-73.22099,0c-7.06555,0 -12.79119,5.76291 -12.79119,12.87444s5.72564,12.87444 12.79119,12.87444z"/>
      </g>
     </g>
    </g>
    <g stroke="null" id="svg_40">
     <g stroke="null" id="svg_41">
      <path stroke="null" id="svg_42" fill="#fec165" d="m1992.05054,470.01738l134.66606,0c7.06555,0 12.79119,-5.76291 12.79119,-12.87444s-5.72564,-12.87444 -12.79119,-12.87444l-134.66606,0c-7.06555,0 -12.79119,5.76291 -12.79119,12.87444s5.72564,12.87444 12.79119,12.87444z"/>
     </g>
     <g stroke="null" id="svg_43">
      <path stroke="null" id="svg_44" fill="#fec165" d="m1992.05054,514.62701l134.66606,0c7.06555,0 12.79119,-5.76291 12.79119,-12.87444s-5.72564,-12.87444 -12.79119,-12.87444l-134.66606,0c-7.06555,0 -12.79119,5.76291 -12.79119,12.87444s5.72564,12.87444 12.79119,12.87444z"/>
     </g>
     <g stroke="null" id="svg_45">
      <path stroke="null" id="svg_46" fill="#fec165" d="m1992.05054,559.23497l46.76577,0c7.06555,0 12.79119,-5.76291 12.79119,-12.87444s-5.72564,-12.87444 -12.79119,-12.87444l-46.76577,0c-7.06555,0 -12.79119,5.76291 -12.79119,12.87444s5.72564,12.87444 12.79119,12.87444z"/>
     </g>
     <g stroke="null" id="svg_47">
      <path stroke="null" id="svg_48" fill="#fec165" d="m2097.80849,559.23497l28.90812,0c7.06555,0 12.79119,-5.76291 12.79119,-12.87444s-5.72564,-12.87444 -12.79119,-12.87444l-28.90812,0c-7.06555,0 -12.79119,5.76291 -12.79119,12.87444s5.72564,12.87444 12.79119,12.87444z"/>
     </g>
     <g stroke="null" id="svg_49">
      <path stroke="null" id="svg_50" fill="#fec165" d="m1992.05054,603.84126l134.66606,0c7.06555,0 12.79119,-5.76291 12.79119,-12.87444s-5.72564,-12.87444 -12.79119,-12.87444l-134.66606,0c-7.06555,0 -12.79119,5.76291 -12.79119,12.87444s5.72564,12.87444 12.79119,12.87444z"/>
     </g>
    </g>
    <g stroke="null" id="svg_51">
     <path stroke="null" id="svg_52" fill="#fedba6" d="m2588.53931,750.05115l138.59468,0c3.77955,0 6.84361,-3.084 6.84361,-6.88815l0,-436.71758c0,-3.80415 -3.06406,-6.88815 -6.84361,-6.88815l-138.59468,0c-3.77955,0 -6.84361,3.084 -6.84361,6.88815l0,436.71758c0.00166,3.80415 3.06571,6.88815 6.84361,6.88815z"/>
     <path stroke="null" id="svg_53" fill="#fece85" d="m2581.69074,306.43708l0,436.73091c0,3.79415 3.06902,6.88315 6.8552,6.88315l34.0988,0c-3.78618,0 -6.83864,-3.089 -6.83864,-6.88315l0,-436.73091c0,-3.79415 3.05246,-6.88315 6.83864,-6.88315l-34.0988,0c-3.78452,0 -6.8552,3.09067 -6.8552,6.88315z"/>
     <path stroke="null" id="svg_54" fill="#fec165" d="m2645.05043,398.24527l0,47.87353l-63.35804,0l0,24.98664l63.35804,0l0,47.87353l-63.35804,0l0,24.98664l63.35804,0l0,47.87353l-63.35804,0l0,24.98664l63.35804,0l0,47.87353l-63.35804,0l0,24.98664l63.35804,0l0,60.36685l25.58238,0l0,-60.36685l63.34148,0l0,-24.98664l-63.34148,0l0,-47.87353l63.34148,0l0,-24.98664l-63.34148,0l0,-47.87353l63.34148,0l0,-24.98664l-63.34148,0l0,-47.87353l63.34148,0l0,-24.98664l-63.34148,0l0,-47.87353l63.34148,0l0,-24.98664l-63.34148,0l0,-60.36685l-25.58238,0l0,60.36685l-63.35804,0l0,24.98664l63.35804,0z"/>
    </g>
   </g>
  </g>
  <path stroke-width="0" stroke="#000" id="svg_22" d="m3053.23141,1001.56949c0.70216,-6.69588 1.10868,-13.46043 1.10868,-20.29366c0,-118.53421 -103.40259,-214.61147 -230.97434,-214.61147c-99.00484,0 -183.22733,57.9966 -216.08112,139.37727c-21.76702,-22.18224 -52.80997,-36.36377 -87.65938,-36.36377c-65.70758,0 -118.96103,49.48082 -118.96103,110.53349c0,7.21095 0.84999,14.2502 2.29127,21.04909c-87.65938,13.42609 -154.73433,83.64697 -154.73433,168.87347c0,94.8411 82.74425,171.68918 184.77947,171.68918l586.67483,0c102.07218,0 184.77947,-76.84808 184.77947,-171.68918c0.03696,-84.16203 -65.22715,-153.86784 -151.22352,-168.56443l0,0.00001z" fill="#B1FFFF"/>
 </g>

</svg>