<svg id="Capa_1" enable-background="new 0 0 512 512" height="512" viewBox="0 0 512 512" width="512" xmlns="http://www.w3.org/2000/svg" xmlns:xlink="http://www.w3.org/1999/xlink">
    <linearGradient id="SVGID_1_" gradientUnits="userSpaceOnUse" x1="256" x2="256" y1="512" y2="0">
        <stop offset="0" stop-color="#ffc2cc"/>
        <stop offset="1" stop-color="#fff2f4"/>
    </linearGradient>
    <linearGradient id="SVGID_2_" gradientUnits="userSpaceOnUse" x1="256" x2="256" y1="407" y2="105">
        <stop offset="0" stop-color="#ffa68d"/>
        <stop offset="1" stop-color="#fd3a84"/>
    </linearGradient><g><g><circle cx="256" cy="256" fill="url(#SVGID_1_)" r="256"/></g><g><g><path d="m327.059 247.118c-44.082 0-79.941 35.859-79.941 79.941 0 44.083 35.859 79.941 79.941 79.941s79.941-35.859 79.941-79.941-35.859-79.941-79.941-79.941zm35.529 88.823h-35.53c-4.91 0-8.882-3.973-8.882-8.883v-35.529c0-4.91 3.973-8.882 8.882-8.882s8.882 3.973 8.882 8.882v26.647h26.647c4.909 0 8.882 3.973 8.882 8.882.002 4.91-3.971 8.883-8.881 8.883zm-204.294-222.059c0-4.975-3.908-8.882-8.883-8.882s-8.882 3.908-8.882 8.882v8.882h17.765zm142.118 0c0-4.975-3.908-8.882-8.882-8.882s-8.882 3.908-8.882 8.882v8.882h17.765v-8.882zm35.529 17.765c0-4.975-3.908-8.882-8.882-8.882h-26.647v26.647c0 4.974-3.908 8.882-8.882 8.882s-8.882-3.909-8.882-8.882v-26.647h-124.354v26.647c0 4.974-3.908 8.882-8.883 8.882s-8.882-3.909-8.882-8.882v-26.647h-26.647c-4.975 0-8.882 3.908-8.882 8.882v44.412h230.941zm-83.477 132.485c-3.141-1.369-5.346-4.486-5.346-8.132 0-4.906 3.977-8.882 8.882-8.882 3.645 0 6.763 2.206 8.132 5.347 17.023-14.387 38.974-23.111 62.927-23.111 3.02 0 6.041.178 8.882.532v-36.062h-230.941v133.235c0 4.974 3.908 8.883 8.882 8.883h116.004c-.356-2.843-.533-5.863-.533-8.883 0-23.953 8.724-45.904 23.111-62.927zm39.065-52.544c4.905 0 8.882 3.976 8.882 8.882 0 4.905-3.977 8.882-8.882 8.882s-8.882-3.977-8.882-8.882c0-4.906 3.977-8.882 8.882-8.882zm-35.529 0c4.905 0 8.882 3.976 8.882 8.882 0 4.905-3.977 8.882-8.882 8.882s-8.882-3.977-8.882-8.882c0-4.906 3.977-8.882 8.882-8.882zm-35.529 0c4.905 0 8.882 3.976 8.882 8.882 0 4.905-3.977 8.882-8.882 8.882s-8.882-3.977-8.882-8.882c-.001-4.906 3.976-8.882 8.882-8.882zm0 35.53c4.905 0 8.882 3.976 8.882 8.882 0 4.905-3.977 8.882-8.882 8.882s-8.882-3.977-8.882-8.882c-.001-4.906 3.976-8.882 8.882-8.882zm-71.059 53.294c-4.905 0-8.882-3.977-8.882-8.882 0-4.906 3.977-8.882 8.882-8.882s8.883 3.976 8.883 8.882c-.001 4.905-3.978 8.882-8.883 8.882zm0-35.53c-4.905 0-8.882-3.977-8.882-8.882 0-4.906 3.977-8.882 8.882-8.882s8.883 3.976 8.883 8.882c-.001 4.905-3.978 8.882-8.883 8.882zm0-35.529c-4.905 0-8.882-3.977-8.882-8.882 0-4.906 3.977-8.882 8.882-8.882s8.883 3.976 8.883 8.882c-.001 4.905-3.978 8.882-8.883 8.882zm35.529 71.059c-4.905 0-8.882-3.977-8.882-8.882 0-4.906 3.977-8.882 8.882-8.882s8.882 3.976 8.882 8.882c0 4.905-3.977 8.882-8.882 8.882zm0-35.53c-4.905 0-8.882-3.977-8.882-8.882 0-4.906 3.977-8.882 8.882-8.882s8.882 3.976 8.882 8.882c0 4.905-3.977 8.882-8.882 8.882zm0-35.529c-4.905 0-8.882-3.977-8.882-8.882 0-4.906 3.977-8.882 8.882-8.882s8.882 3.976 8.882 8.882c0 4.905-3.977 8.882-8.882 8.882zm35.53 71.059c-4.905 0-8.882-3.977-8.882-8.882 0-4.906 3.977-8.882 8.882-8.882s8.882 3.976 8.882 8.882c0 4.905-3.977 8.882-8.882 8.882z" fill="url(#SVGID_2_)"/></g></g></g>
</svg>