<svg id="Capa_1" enable-background="new 0 0 512 512" height="512" viewBox="0 0 512 512" width="512" xmlns="http://www.w3.org/2000/svg" xmlns:xlink="http://www.w3.org/1999/xlink">
<linearGradient id="SVGID_1_" gradientUnits="userSpaceOnUse" x1="248.5" x2="248.5" y1="466" y2="31"><stop offset="0" stop-color="#00b59c"/><stop offset="1" stop-color="#9cffac"/></linearGradient><linearGradient id="SVGID_2_" gradientUnits="userSpaceOnUse" x1="317" x2="317" y1="481" y2="91"><stop offset="0" stop-color="#c3ffe8"/><stop offset=".9973" stop-color="#f0fff4"/></linearGradient><g id="Timer_2_"><g><g><path d="m331.968 106.627c.009-.21.032-.415.032-.627v-45h15c8.291 0 15-6.709 15-15s-6.709-15-15-15h-60c-8.291 0-15 6.709-15 15s6.709 15 15 15h15v45c0 .212.023.418.032.627-92.28 7.633-165.032 85.156-165.032 179.373 0 99.258 80.742 180 180 180s180-80.742 180-180c0-94.217-72.752-171.74-165.032-179.373zm-316.968 14.373h122c8.291 0 15-6.709 15-15s-6.709-15-15-15h-122c-8.291 0-15 6.709-15 15s6.709 15 15 15zm92 60h-92c-8.291 0-15 6.709-15 15s6.709 15 15 15h92c8.291 0 15-6.709 15-15s-6.709-15-15-15zm-60 90h-32c-8.291 0-15 6.709-15 15s6.709 15 15 15h32c8.291 0 15-6.709 15-15s-6.709-15-15-15z" fill="url(#SVGID_1_)"/></g></g><g><g><path d="m317 91c-107.52 0-195 87.48-195 195s87.48 195 195 195 195-87.48 195-195-87.48-195-195-195zm15 359.24v-14.24c0-8.291-6.709-15-15-15s-15 6.709-15 15v14.24c-79.01-7.167-142.073-70.221-149.24-149.24h14.24c8.291 0 15-6.709 15-15s-6.709-15-15-15h-14.24c7.161-78.955 70.329-141.313 149.24-148.566v13.566c0 8.291 6.709 15 15 15s15-6.709 15-15v-13.566c78.911 7.253 142.079 69.611 149.24 148.566h-14.24c-8.291 0-15 6.709-15 15s6.709 15 15 15h14.24c-7.167 79.019-70.23 142.073-149.24 149.24zm64.395-264.845-60.115 60.115c-5.867-2.807-12.353-4.51-19.28-4.51-24.814 0-45 20.186-45 45s20.186 45 45 45 45-20.186 45-45c0-6.927-1.703-13.413-4.51-19.279l60.115-60.115c5.859-5.859 5.859-15.352 0-21.211s-15.351-5.86-21.21 0z" fill="url(#SVGID_2_)"/></g></g></g></svg>